<svg xmlns="http://www.w3.org/2000/svg" width="760" height="360" viewBox="0 0 760 360" font-family="-apple-system, 'Segoe UI', 'Noto Sans', 'Noto Sans SC', 'PingFang SC', 'Microsoft YaHei', sans-serif">
<rect width="760" height="360" fill="#ffffff"/>
<text x="64" y="26" font-size="15" font-weight="600" fill="#24292f">Sharp-bank full-delivery trend (10 cells × 1 rep, glm-5.3)</text>
<line x1="64" y1="304.0" x2="732" y2="304.0" stroke="#eaeef2" stroke-width="1"/>
<text x="54" y="308.0" font-size="12" fill="#57606a" text-anchor="end">0/10</text>
<line x1="64" y1="175.0" x2="732" y2="175.0" stroke="#eaeef2" stroke-width="1"/>
<text x="54" y="179.0" font-size="12" fill="#57606a" text-anchor="end">5/10</text>
<line x1="64" y1="46.0" x2="732" y2="46.0" stroke="#eaeef2" stroke-width="1"/>
<text x="54" y="50.0" font-size="12" fill="#57606a" text-anchor="end">10/10</text>
<polygon points="64,304 184.2,278.2 611.8,200.8 732,304" fill="#ddf4ff"/>
<polyline points="184.2,278.2 611.8,200.8" fill="none" stroke="#0969da" stroke-width="2.4"/>
<line x1="64" y1="278.2" x2="732" y2="278.2" stroke="#9a6700" stroke-width="1.2" stroke-dasharray="5 4"/>
<text x="732" y="271.2" font-size="11.5" fill="#9a6700" text-anchor="end">contract-v2 baseline 契约脸基线 1/10</text>
<circle cx="184.2" cy="278.2" r="5.5" fill="#0969da" stroke="#ffffff" stroke-width="2"/>
<text x="184.2" y="264.2" font-size="14" font-weight="700" fill="#24292f" text-anchor="middle">1/10</text>
<text x="184.2" y="326.0" font-size="13" font-weight="600" fill="#24292f" text-anchor="middle">contract-v2</text>
<text x="184.2" y="344.0" font-size="11.5" fill="#57606a" text-anchor="middle">2026-08-31</text>
<circle cx="611.8" cy="200.8" r="5.5" fill="#0969da" stroke="#ffffff" stroke-width="2"/>
<text x="611.8" y="186.8" font-size="14" font-weight="700" fill="#24292f" text-anchor="middle">4/10</text>
<text x="611.8" y="326.0" font-size="13" font-weight="600" fill="#24292f" text-anchor="middle">v0.2.0</text>
<text x="611.8" y="344.0" font-size="11.5" fill="#57606a" text-anchor="middle">2026-08-31</text>
<text x="64" y="348" font-size="11.5" fill="#57606a">Same-day 2026-08-31. Hard-pressure face omitted (no transcripts). CHANGELOG 0.2.0 qualitative refusal counts use a different bar.</text>
</svg>